<svg width="24" height="24" viewBox="0 0 24 24" fill="none" xmlns="http://www.w3.org/2000/svg">
<path d="M6.68981 13.7415L2.28356 8.69766L6.68981 3.65382C7.04588 3.24577 7.00434 2.62613 6.5963 2.26974C6.18825 1.91368 5.56894 1.95554 5.21222 2.36325L0.242297 8.05252C-0.0807656 8.42199 -0.0807656 8.97361 0.242297 9.34308L5.21227 15.0324C5.40647 15.2541 5.6782 15.3679 5.95153 15.3679C6.18042 15.3679 6.41025 15.2881 6.5963 15.1256C7.00439 14.7692 7.0462 14.1496 6.68981 13.7415Z" fill="white"/>
<path d="M16.8717 7.7168H0.980906C0.439125 7.7168 0 8.15587 0 8.6977C0 9.23948 0.439125 9.67861 0.980906 9.67861H16.8717C19.7206 9.67861 22.0382 11.9962 22.0382 14.8448C22.0382 17.6933 19.7206 20.0109 16.8717 20.0109H2.28881C1.74703 20.0109 1.30791 20.45 1.30791 20.9918C1.30791 21.5336 1.74703 21.9727 2.28881 21.9727H16.8717C20.8019 21.9727 24 18.7749 24 14.8448C24 10.9146 20.8022 7.7168 16.8717 7.7168Z" fill="white"/>
</svg>
